<svg xmlns="http://www.w3.org/2000/svg" xmlns:xlink="http://www.w3.org/1999/xlink" version="1.1" x="0px" y="0px" viewBox="0 0 100 100" enable-background="new 0 0 100 100" xml:space="preserve"><path d="M87.59,18H18.431C14.34,18,11,21.312,11,25.403V29H8.806C6.703,29,5,30.896,5,33c0,2.103,1.703,4,3.806,4H11v9H8.806  C6.703,46,5,47.897,5,50c0,2.103,1.703,4,3.806,4H11v10H8.806C6.703,64,5,65.896,5,67.999C5,70.104,6.703,72,8.806,72H11v2.596  C11,78.687,14.34,82,18.431,82H87.59c4.091,0,7.41-3.313,7.41-7.404V25.403C95,21.312,91.681,18,87.59,18z M87.59,77H18.431  C17.065,77,16,75.961,16,74.596V72h0.631c2.103,0,3.806-1.896,3.806-4.001c0-2.103-1.703-3.999-3.806-3.999H16V54h0.631  c2.103,0,3.806-1.896,3.806-4c0-2.104-1.703-4-3.806-4H16v-9h0.631c2.103,0,3.806-1.897,3.806-4c0-2.104-1.703-4-3.806-4H16v-3.597  C16,24.038,17.065,23,18.431,23H87.59c1.365,0,2.41,1.038,2.41,2.403v28.389l-5.251-4.412c-0.628-0.541-1.544-0.579-2.224-0.116  L69.558,58.01L47.602,36.282c-0.61-0.604-1.558-0.71-2.279-0.256L21.665,50.726l-0.045,4.472l24.417-15.254L68.028,61.71  c0.357,0.353,0.83,0.535,1.303,0.535c0.361,0,0.723-0.106,1.037-0.317l13.068-8.814L90,58.63v15.966C90,75.961,88.955,77,87.59,77z"></path><path d="M72.515,47.585c-4.737,0-8.592-3.854-8.592-8.592c0-4.742,3.854-8.597,8.592-8.597c4.736,0,8.592,3.854,8.592,8.597  C81.106,43.73,77.251,47.585,72.515,47.585z M72.515,34.102c-2.691,0-4.887,2.195-4.887,4.892c0,2.697,2.195,4.888,4.887,4.888  c2.696,0,4.887-2.19,4.887-4.888C77.401,36.297,75.211,34.102,72.515,34.102z"></path></svg>