<svg width="54.691" height="54.691" xmlns="http://www.w3.org/2000/svg">

 <g>
  <title>background</title>
  <rect fill="none" id="canvas_background" height="402" width="582" y="-1" x="-1"/>
 </g>
 <g>
  <title>Layer 1</title>
  <g id="svg_1">
   <path id="svg_2" d="m-4318.56,-68.404c-43.25,0 -78.438,35.186 -78.438,78.435c0,43.252 35.188,78.438 78.438,78.438s78.436,-35.188 78.436,-78.438c0,-43.249 -35.186,-78.435 -78.436,-78.435zm-0.307,33.217c13.682,0 24.771,11.092 24.771,24.771c0,13.682 -11.092,24.771 -24.771,24.771c-13.683,0 -24.771,-11.092 -24.771,-24.771c-0.001,-13.679 11.088,-24.771 24.771,-24.771zm44.181,100.261c-12.042,9.627 -27.292,15.396 -43.874,15.396c-16.562,0 -31.797,-5.75 -43.834,-15.354c1.116,-19.851 14.187,-39.903 30.178,-39.903l27.332,0c16.024,0 29.128,19.324 30.197,39.206c0.001,0.002 0.001,0.004 0.001,0.006s0,0.361 0,0.649z"/>
  </g>
  <g id="svg_3">
   <rect fill="#ffffff" id="svg_4" height="24.835" width="8.532" transform="matrix(0.7444,0.6677,-0.6677,0.7444,25.2784,-10.8496) " y="15.177" x="22.545"/>
   <polyline fill="#ffffff" id="svg_5" points="13.08,42.904 20.579,40.933 14.227,35.236 13.08,42.904  "/>
   <rect fill="#ffffff" id="svg_6" height="3.057" width="8.532" transform="matrix(0.7445,0.6677,-0.6677,0.7445,20.0919,-20.9498) " y="14.245" x="33.149"/>
  </g>
 </g>
</svg>