<svg xmlns="http://www.w3.org/2000/svg" xmlns:xlink="http://www.w3.org/1999/xlink" version="1.1" baseProfile="tiny" x="0px" y="0px" viewBox="0 0 100 100" xml:space="preserve"><g><g><path fill-rule="evenodd" fill="#000000" d="M65,25.09c9.82,3.965,16.74,13.598,16.74,24.85c0,11.254-6.92,20.884-16.74,24.849    v5.588c12.781-4.184,22-16.237,22-30.437c0-14.197-9.219-26.25-22-30.455V25.09z M65,38.285c3.281,2.805,5.359,6.988,5.359,11.654    c0,4.668-2.078,8.85-5.359,11.654v5.685c5.98-3.462,10-9.929,10-17.339c0-7.406-4.02-13.873-10-17.34V38.285z M19,65.958h16    l18,22.027c2,2.883,6.68,2.662,8-0.604V12.658c-1.621-3.264-5.879-3.525-8-0.764L35,34H19c-5.121,0-6,0.922-6,5.928v20.023    C13,64.837,14,65.958,19,65.958z"></path></g></g></svg>