<svg width="100" height="100" xmlns="http://www.w3.org/2000/svg">

 <g>
  <title>background</title>
  <rect fill="none" id="canvas_background" height="402" width="582" y="-1" x="-1"/>
 </g>
 <g>
  <title>Layer 1</title>
  <g id="svg_1">
   <path fill="#ffffff" id="svg_2" d="m93.578,86.696l-21.709,-21.709c4.842,-6.29 7.719,-14.155 7.719,-22.691c0,-20.562 -16.732,-37.294 -37.294,-37.294c-20.562,-0.001 -37.294,16.731 -37.294,37.293c0,20.562 16.732,37.294 37.294,37.294c8.526,0 16.411,-2.878 22.701,-7.719l21.709,21.709c0.943,0.943 2.187,1.419 3.432,1.419c1.244,0 2.489,-0.476 3.442,-1.419c1.896,-1.905 1.896,-4.977 0,-6.883zm-78.856,-44.401c0,-15.205 12.367,-27.572 27.572,-27.572c15.205,0 27.572,12.366 27.572,27.572s-12.367,27.572 -27.572,27.572c-15.205,0 -27.572,-12.366 -27.572,-27.572z"/>
  </g>
 </g>
</svg>