<svg width="100" height="100" xmlns="http://www.w3.org/2000/svg">

 <g>
  <title>background</title>
  <rect fill="none" id="canvas_background" height="402" width="582" y="-1" x="-1"/>
 </g>
 <g>
  <title>Layer 1</title>
  <path fill="#ffffff" id="svg_1" d="m63.5,69.5l-28,0l0,-32l-4,0l0,32c0,2.206 1.794,4 4,4l28,0c2.206,0 4,-1.794 4,-4l0,-32l-4,0l0,32zm-5,-38l0,-2c0,-2.206 -1.794,-4 -4,-4l-10,0c-2.206,0 -4,1.794 -4,4l0,2l-12,0l0,4l42,0l0,-4l-12,0zm-4,0l-10,0l0,-2l10,0l0,2zm-15,9l0,25l4,0l0,-25l-4,0zm16,0l0,25l4,0l0,-25l-4,0zm-8,0l0,25l4,0l0,-25l-4,0z"/>
  <g id="svg_15">
   <g transform="matrix(3.3611112568113555,0,0,3.3611112568113555,0,0) " id="svg_13">
    <title transform="translate(-275.12396240234375,0) translate(0,-185.12396240234375) ">background</title>
    <rect x="-276.123962" y="-186.123962" width="582" height="402" id="svg_11" fill="none"/>
   </g>
   <g transform="matrix(3.3611112568113555,0,0,3.3611112568113555,0,0) " id="svg_14">
    <title transform="translate(-275.12396240234375,0) translate(0,-185.12396240234375) ">Layer 1</title>
    <rect x="-52.538294" y="-289.805918" transform="matrix(0.7071,-0.7071,0.7071,0.7071,-18.2809,45.1487) " width="67.5" height="18" id="svg_10" fill="#ffffff"/>
    <polygon points="-263.1759624481201,-119.79996490478516 -250.44796180725098,-107.07196044921875 -266.3579626083374,-103.88996124267578 " id="svg_9" fill="#ffffff"/>
    <rect x="8.225806" y="-318.276543" transform="matrix(0.707,-0.7072,0.7072,0.707,10.1837,56.9431) " width="4" height="18" id="svg_8" fill="#ffffff"/>
   </g>
  </g>
 </g>
</svg>