<svg xmlns="http://www.w3.org/2000/svg" xmlns:xlink="http://www.w3.org/1999/xlink" version="1.1" x="0px" y="0px" viewBox="0 0 100 100" enable-background="new 0 0 100 100" xml:space="preserve"><path d="M97.6,52.4c-0.4-2.9-3.8-4.3-6.3-2.8l-15.5,9.3c-1.4,1.1-3.4,0.2-3.4-1.6v-4.1c0-5.5-4.5-10-10-10H12.4c-5.5,0-10,4.5-10,10  v14.3c0,0,0,0.1,0,0.1v14.3c0,5.5,4.5,10,10,10h49.9c5.5,0,10-4.5,10-10v-4.1c0-1.8,2.1-2.7,3.4-1.6l15.5,9.3  c2.5,1.5,5.9,0.1,6.3-2.8c0-0.2,0-0.3,0-0.5V52.9C97.6,52.7,97.6,52.6,97.6,52.4z"></path><path d="M55.1,7.1c-9.3,0-16.8,7.5-16.8,16.8s7.5,16.8,16.8,16.8s16.8-7.5,16.8-16.8S64.3,7.1,55.1,7.1z M55.1,31.5  c-4.2,0-7.6-3.4-7.6-7.6c0-4.2,3.4-7.6,7.6-7.6c4.2,0,7.6,3.4,7.6,7.6C62.7,28.1,59.3,31.5,55.1,31.5z"></path><path d="M19.1,6.8c-9.3,0-16.8,7.5-16.8,16.8c0,9.3,7.5,16.8,16.8,16.8s16.8-7.5,16.8-16.8C35.9,14.3,28.4,6.8,19.1,6.8z M19.1,31.2  c-4.2,0-7.6-3.4-7.6-7.6c0-4.2,3.4-7.6,7.6-7.6c4.2,0,7.6,3.4,7.6,7.6C26.8,27.8,23.3,31.2,19.1,31.2z"></path></svg>